<svg xmlns="http://www.w3.org/2000/svg" x="0px" y="0px"
width="50" height="50"
viewBox="0 0 171 171"
style=" fill:#000000;"><g fill="none" fill-rule="nonzero" stroke="none" stroke-width="1" stroke-linecap="butt" stroke-linejoin="miter" stroke-miterlimit="10" stroke-dasharray="" stroke-dashoffset="0" font-family="none" font-weight="none" font-size="none" text-anchor="none" style="mix-blend-mode: normal"><path d="M0,171.99219v-171.99219h171.99219v171.99219z" fill="none"></path><g fill="#ffffff"><path d="M64.98,3.42c-4.42195,0 -8.1893,2.88563 -9.61875,6.84h-38.26125c-5.65102,0 -10.26,4.60898 -10.26,10.26v119.7c0,5.65102 4.60898,10.26 10.26,10.26h54.72v-78.66c0,-9.43172 7.66828,-17.1 17.1,-17.1h34.2v-34.2c0,-5.65102 -4.60898,-10.26 -10.26,-10.26h-38.26125c-1.42945,-3.95437 -5.1968,-6.84 -9.61875,-6.84zM64.98,10.26c1.92375,0 3.42,1.49625 3.42,3.42c0,1.92375 -1.49625,3.42 -3.42,3.42c-1.92375,0 -3.42,-1.49625 -3.42,-3.42c0,-1.92375 1.49625,-3.42 3.42,-3.42zM37.62,17.1h17.74125c1.42945,3.95437 5.1968,6.84 9.61875,6.84c4.42195,0 8.1893,-2.88562 9.61875,-6.84h17.74125v10.26c0,3.7807 -3.0593,6.84 -6.84,6.84h-41.04c-3.7807,0 -6.84,-3.0593 -6.84,-6.84zM37.62,51.3h6.84v20.52h6.84v-13.68h6.84v13.68h6.84v6.84h-47.88v-6.84h6.84v-10.26h6.84v10.26h6.84zM88.92,61.56c-5.65102,0 -10.26,4.60898 -10.26,10.26v78.66c0,5.65102 4.60898,10.26 10.26,10.26h61.56c5.65102,0 10.26,-4.60898 10.26,-10.26v-78.66c0,-5.65102 -4.60898,-10.26 -10.26,-10.26zM95.76,75.24h47.88c1.89703,0 3.42,1.53633 3.42,3.42v13.68c0,1.89703 -1.52297,3.42 -3.42,3.42h-47.88c-1.89703,0 -3.42,-1.52297 -3.42,-3.42v-13.68c0,-1.88367 1.52297,-3.42 3.42,-3.42zM41.04,92.34c11.31539,0 20.52,9.20461 20.52,20.52c0,11.31539 -9.20461,20.52 -20.52,20.52c-11.31539,0 -20.52,-9.20461 -20.52,-20.52c0,-11.31539 9.20461,-20.52 20.52,-20.52zM41.04,99.18c-7.54805,0 -13.68,6.13195 -13.68,13.68c0,7.54805 6.13195,13.68 13.68,13.68c7.54805,0 13.68,-6.13195 13.68,-13.68h-13.68zM95.76,102.6h6.84c1.88367,0 3.42,1.53633 3.42,3.42v3.42c0,1.88367 -1.53633,3.42 -3.42,3.42h-6.84c-1.88367,0 -3.42,-1.53633 -3.42,-3.42v-3.42c0,-1.88367 1.53633,-3.42 3.42,-3.42zM116.28,102.6h6.84c1.88367,0 3.42,1.53633 3.42,3.42v3.42c0,1.88367 -1.53633,3.42 -3.42,3.42h-6.84c-1.88367,0 -3.42,-1.53633 -3.42,-3.42v-3.42c0,-1.88367 1.53633,-3.42 3.42,-3.42zM136.8,102.6h6.84c1.88367,0 3.42,1.53633 3.42,3.42v3.42c0,1.88367 -1.53633,3.42 -3.42,3.42h-6.84c-1.88367,0 -3.42,-1.53633 -3.42,-3.42v-3.42c0,-1.88367 1.53633,-3.42 3.42,-3.42zM95.76,119.7h6.84c1.88367,0 3.42,1.53633 3.42,3.42v3.42c0,1.88367 -1.53633,3.42 -3.42,3.42h-6.84c-1.88367,0 -3.42,-1.53633 -3.42,-3.42v-3.42c0,-1.88367 1.53633,-3.42 3.42,-3.42zM116.28,119.7h6.84c1.88367,0 3.42,1.53633 3.42,3.42v3.42c0,1.88367 -1.53633,3.42 -3.42,3.42h-6.84c-1.88367,0 -3.42,-1.53633 -3.42,-3.42v-3.42c0,-1.88367 1.53633,-3.42 3.42,-3.42zM136.8,119.7h6.84c1.88367,0 3.42,1.53633 3.42,3.42v3.42c0,1.88367 -1.53633,3.42 -3.42,3.42h-6.84c-1.88367,0 -3.42,-1.53633 -3.42,-3.42v-3.42c0,-1.88367 1.53633,-3.42 3.42,-3.42zM95.76,136.8h6.84c1.88367,0 3.42,1.53633 3.42,3.42v3.42c0,1.88367 -1.53633,3.42 -3.42,3.42h-6.84c-1.88367,0 -3.42,-1.53633 -3.42,-3.42v-3.42c0,-1.88367 1.53633,-3.42 3.42,-3.42zM116.28,136.8h6.84c1.88367,0 3.42,1.53633 3.42,3.42v3.42c0,1.88367 -1.53633,3.42 -3.42,3.42h-6.84c-1.88367,0 -3.42,-1.53633 -3.42,-3.42v-3.42c0,-1.88367 1.53633,-3.42 3.42,-3.42zM136.8,136.8h6.84c1.88367,0 3.42,1.53633 3.42,3.42v3.42c0,1.88367 -1.53633,3.42 -3.42,3.42h-6.84c-1.88367,0 -3.42,-1.53633 -3.42,-3.42v-3.42c0,-1.88367 1.53633,-3.42 3.42,-3.42z"></path></g></g></svg>