<svg xmlns="http://www.w3.org/2000/svg" x="0px" y="0px"
width="50" height="50"
viewBox="0 0 171 171"
style=" fill:#000000;"><g fill="none" fill-rule="nonzero" stroke="none" stroke-width="1" stroke-linecap="butt" stroke-linejoin="miter" stroke-miterlimit="10" stroke-dasharray="" stroke-dashoffset="0" font-family="none" font-weight="none" font-size="none" text-anchor="none" style="mix-blend-mode: normal"><path d="M0,171.99219v-171.99219h171.99219v171.99219z" fill="none"></path><g fill="#ffffff"><path d="M114.57,6.84c-1.79015,0 -3.52687,0.5611 -4.96969,1.60313h-0.01336l-36.765,23.40563c-2.72531,1.50961 -4.42195,4.36852 -4.42195,7.48125c0,4.71586 3.83414,8.55 8.55,8.55c1.7768,0 3.50016,-0.56109 4.94297,-1.58977l37.0589,-23.55258h-0.01336c2.59172,-1.54969 4.18148,-4.32844 4.18148,-7.34766c0,-4.71586 -3.83414,-8.55 -8.55,-8.55zM122.06461,27.76078l-37.41961,22.7243l21.53531,35.45578l37.40625,-22.7243zM152.19,64.98c-1.79015,0 -3.52687,0.5611 -4.96969,1.60312h-0.01336l-36.88523,23.47242c-2.65852,1.52297 -4.30172,4.35516 -4.30172,7.41445c0,4.71586 3.83414,8.55 8.55,8.55c1.80352,0 3.56695,-0.58781 5.02313,-1.65656l36.97875,-23.49914c2.57836,-1.53633 4.16813,-4.32844 4.16813,-7.3343c0,-4.71586 -3.83414,-8.55 -8.55,-8.55zM88.065,65.15367l-75.45375,41.895c-3.52688,1.72336 -5.77125,5.30367 -5.77125,9.23133c0,5.66437 4.59563,10.26 10.26,10.26c2.00391,0 3.96773,-0.60117 5.63766,-1.71l0.01336,0.01336l72.36773,-48.06703zM92.34,147.06c-3.7807,0 -6.84,3.0593 -6.84,6.84v10.26h78.66v-10.26c0,-3.7807 -3.0593,-6.84 -6.84,-6.84z"></path></g></g></svg>