<svg xmlns="http://www.w3.org/2000/svg" x="0px" y="0px"
width="24" height="24"
viewBox="0 0 171 171"
style=" fill:#000000;"><g fill="none" fill-rule="nonzero" stroke="none" stroke-width="1" stroke-linecap="butt" stroke-linejoin="miter" stroke-miterlimit="10" stroke-dasharray="" stroke-dashoffset="0" font-family="none" font-weight="none" font-size="none" text-anchor="none" style="mix-blend-mode: normal"><path d="M0,171.99219v-171.99219h171.99219v171.99219z" fill="none"></path><g fill="#ffffff"><path d="M37.21699,14.33906c-1.53861,-0.02067 -3.02021,0.58161 -4.10801,1.66992c-2.22541,2.22589 -2.22541,5.83427 0,8.06016c2.22589,2.22541 5.83427,2.22541 8.06016,0c2.22541,-2.22589 2.22541,-5.83427 0,-8.06016c-1.04961,-1.05012 -2.46755,-1.64925 -3.95215,-1.66992zM133.95,14.33906c-1.54245,-0.02369 -3.02863,0.57882 -4.11914,1.66992c-2.22541,2.22589 -2.22541,5.83427 0,8.06016c2.22589,2.22541 5.83426,2.22541 8.06015,0c2.22541,-2.22589 2.22541,-5.83427 0,-8.06016c-1.04686,-1.04746 -2.46029,-1.64637 -3.94101,-1.66992zM85.5,17.1c-28.3347,0 -51.3,22.9653 -51.3,51.3c0,28.5 22.8,39.9 34.2,62.7h34.2c11.4,-22.8 34.2,-34.2 34.2,-62.7c0,-28.3347 -22.9653,-51.3 -51.3,-51.3zM85.5,34.2v28.5h22.8l-22.8,39.9v-28.5h-22.8zM17.1,62.7c-3.14802,0 -5.7,2.55198 -5.7,5.7c0,3.14802 2.55198,5.7 5.7,5.7c3.14802,0 5.7,-2.55198 5.7,-5.7c0,-3.14802 -2.55198,-5.7 -5.7,-5.7zM153.9,62.7c-3.14802,0 -5.7,2.55198 -5.7,5.7c0,3.14802 2.55198,5.7 5.7,5.7c3.14802,0 5.7,-2.55198 5.7,-5.7c0,-3.14802 -2.55198,-5.7 -5.7,-5.7zM37.21699,111.06094c-1.54245,-0.02369 -3.02863,0.57882 -4.11914,1.66992c-2.22541,2.22589 -2.22541,5.83426 0,8.06015c1.06937,1.0721 2.52139,1.67463 4.03564,1.67463c1.51425,0 2.96627,-0.60253 4.03564,-1.67463c2.22541,-2.22589 2.22541,-5.83426 0,-8.06015c-1.04961,-1.05013 -2.46755,-1.64926 -3.95215,-1.66992zM133.93887,111.07207c-1.53699,-0.02361 -3.01836,0.57456 -4.10801,1.65879c-1.0721,1.06937 -1.67463,2.52139 -1.67463,4.03564c0,1.51425 0.60253,2.96627 1.67463,4.03564c2.22589,2.22541 5.83426,2.22541 8.06015,0c1.0721,-1.06937 1.67463,-2.52139 1.67463,-4.03564c0,-1.51425 -0.60253,-2.96627 -1.67463,-4.03564c-1.05141,-1.04604 -2.46913,-1.64109 -3.95215,-1.65879zM68.4,142.5v5.7c0,6.2985 5.1015,11.4 11.4,11.4c0,3.14802 2.55198,5.7 5.7,5.7c3.14802,0 5.7,-2.55198 5.7,-5.7c6.2985,0 11.4,-5.1015 11.4,-11.4v-5.7z"></path></g></g></svg>