<svg xmlns="http://www.w3.org/2000/svg" xmlns:xlink="http://www.w3.org/1999/xlink" id="Layer_1" x="0" y="0" version="1.1" viewBox="0 0 170 170" xml:space="preserve" style="enable-background:new 0 0 170 170"><style type="text/css">.st0,.st1{fill:#fff;stroke:#270b52;stroke-width:.25;stroke-miterlimit:10}.st1{fill:none}</style><path d="M56.7,86.1c6.2,15.9,6.7-8.3,6.6-10.7l3.1,15.4c0.2,0.9-0.1,1-0.4,0.3c-2.1-5-6.1-7.3-11.3-8.2	c0,0,14.7-0.3,17.1-1.5c3.3-1.6,3-5.3-0.3-6c-1.2-0.3-2.4-0.2-3.7-0.2c-0.4,0-0.7,0.7-0.7,1.1c0.1,3,0.1,12.8,0.2,15" class="st0"/><polyline points="65 84.2 88.7 74.8 50.9 75.2" class="st1"/><line x1="49.3" x2="62.8" y1="90.4" y2="85.1" class="st1"/></svg>