<?xml version="1.0" encoding="utf-8"?>
<!-- Generator: Adobe Illustrator 25.2.0, SVG Export Plug-In . SVG Version: 6.00 Build 0)  -->
<svg version="1.1" id="Layer_1" xmlns="http://www.w3.org/2000/svg" xmlns:xlink="http://www.w3.org/1999/xlink" x="0px" y="0px"
	 viewBox="0 0 170 170" style="enable-background:new 0 0 170 170;" xml:space="preserve">
<style type="text/css">
	.st0{fill:#FFFFFF;stroke:#270B52;stroke-width:0.25;stroke-miterlimit:10;}
	.st1{fill:none;stroke:#270B52;stroke-width:0.25;stroke-miterlimit:10;}
</style>
<path class="st0" d="M56.7,86.1c6.2,15.9,6.7-8.3,6.6-10.7l3.1,15.4c0.2,0.9-0.1,1-0.4,0.3c-2.1-5-6.1-7.3-11.3-8.2
	c0,0,14.7-0.3,17.1-1.5c3.3-1.6,3-5.3-0.3-6c-1.2-0.3-2.4-0.2-3.7-0.2c-0.4,0-0.7,0.7-0.7,1.1c0.1,3,0.1,12.8,0.2,15"/>
<polyline class="st1" points="65,84.2 88.7,74.8 50.9,75.2 "/>
<line class="st1" x1="49.3" y1="90.4" x2="62.8" y2="85.1"/>
</svg>
