<svg version="1.1" xmlns="http://www.w3.org/2000/svg" xmlns:xlink="http://www.w3.org/1999/xlink" viewBox="0 0 171 171"><g fill="none" fill-rule="nonzero" stroke="none" stroke-width="1" stroke-linecap="butt" stroke-linejoin="miter" stroke-miterlimit="10" stroke-dasharray="" stroke-dashoffset="0" font-family="none" font-weight="none" font-size="none" text-anchor="none" style="mix-blend-mode: normal"><path d="M0,171.99219v-171.99219h171.99219v171.99219z" fill="none"></path><g fill="#ffffff"><path d="M117.5625,21.375c-20.62687,0 -32.0625,14.89125 -32.0625,14.89125c0,0 -11.43563,-14.89125 -32.0625,-14.89125c-21.64575,0 -39.1875,17.54175 -39.1875,39.1875c0,39.1875 71.25,89.0625 71.25,89.0625c0,0 71.25,-49.875 71.25,-89.0625c0,-21.64575 -17.54175,-39.1875 -39.1875,-39.1875zM85.5,131.94075c-24.81637,-19.04512 -57,-50.673 -57,-71.37825c0,-13.75125 11.18625,-24.9375 24.9375,-24.9375c17.11425,0 32.0625,20.71238 32.0625,20.71238c0,0 15.2475,-20.71238 32.0625,-20.71238c13.75125,0 24.9375,11.18625 24.9375,24.9375c0,20.70525 -32.18362,52.33313 -57,71.37825z"></path></g></g></svg>